HIERARCHY
ROOT joint_Root
{
	OFFSET 0.0 0.0 0.0
	CHANNELS 6 Xposition Yposition Zposition Zrotation Xrotation Yrotation 
	JOINT Hips
	{
		OFFSET -17.1583 93.1646 452.98
		CHANNELS 6 Xposition Yposition Zposition Zrotation Xrotation Yrotation 
		JOINT Spine
		{
			OFFSET 15.7357 0.0 0.0
			CHANNELS 6 Xposition Yposition Zposition Zrotation Xrotation Yrotation 
			JOINT Chest
			{
				OFFSET 8.98455 -0.406207 0.0
				CHANNELS 6 Xposition Yposition Zposition Zrotation Xrotation Yrotation 
				JOINT Neck
				{
					OFFSET 16.3773 0.0 0.0
					CHANNELS 6 Xposition Yposition Zposition Zrotation Xrotation Yrotation 
					JOINT Head
					{
						OFFSET 6.45672 0.0 0.0
						CHANNELS 6 Xposition Yposition Zposition Zrotation Xrotation Yrotation 
						End Site
						{
							OFFSET 0.0 0.0 0.0
						}
					}
				}
				JOINT Shoulder_L
				{
					OFFSET 12.9942 -0.242716 4.98039
					CHANNELS 6 Xposition Yposition Zposition Zrotation Xrotation Yrotation 
					JOINT UpperArm_L
					{
						OFFSET 5.34809 0.0 0.0
						CHANNELS 6 Xposition Yposition Zposition Zrotation Xrotation Yrotation 
						JOINT LowerArm_L
						{
							OFFSET 24.3286 1.87007e-05 0.0
							CHANNELS 6 Xposition Yposition Zposition Zrotation Xrotation Yrotation 
							JOINT Hand_L
							{
								OFFSET 22.2916 0.0 0.0
								CHANNELS 6 Xposition Yposition Zposition Zrotation Xrotation Yrotation 
								End Site
								{
									OFFSET 0.0 0.0 0.0
								}
							}
						}
					}
				}
				JOINT Shoulder_R
				{
					OFFSET 12.9945 -0.242716 -4.98039
					CHANNELS 6 Xposition Yposition Zposition Zrotation Xrotation Yrotation 
					JOINT UpperArm_R
					{
						OFFSET -5.34813 0.0 0.0
						CHANNELS 6 Xposition Yposition Zposition Zrotation Xrotation Yrotation 
						JOINT LowerArm_R
						{
							OFFSET -24.3289 0.000322201 0.0
							CHANNELS 6 Xposition Yposition Zposition Zrotation Xrotation Yrotation 
							JOINT Hand_R
							{
								OFFSET -22.2915 -0.000108084 0.0
								CHANNELS 6 Xposition Yposition Zposition Zrotation Xrotation Yrotation 
								End Site
								{
									OFFSET 0.0 0.0 0.0
								}
							}
						}
					}
				}
			}
		}
		JOINT UpperLeg_L
		{
			OFFSET -2.19248 -6.46944 0.0
			CHANNELS 6 Xposition Yposition Zposition Zrotation Xrotation Yrotation 
			JOINT LowerLeg_L
			{
				OFFSET 39.0811 0.0 -1.23785e-05
				CHANNELS 6 Xposition Yposition Zposition Zrotation Xrotation Yrotation 
				JOINT Foot_L
				{
					OFFSET 40.9854 0.0 -1.26872e-05
					CHANNELS 6 Xposition Yposition Zposition Zrotation Xrotation Yrotation 
					JOINT Toes_L
					{
						OFFSET 11.7543 0.0 0.0
						CHANNELS 6 Xposition Yposition Zposition Zrotation Xrotation Yrotation 
						End Site
						{
							OFFSET 0.0 0.0 0.0
						}
					}
				}
			}
		}
		JOINT UpperLeg_R
		{
			OFFSET -2.19251 6.46944 0.0
			CHANNELS 6 Xposition Yposition Zposition Zrotation Xrotation Yrotation 
			JOINT LowerLeg_R
			{
				OFFSET -39.0811 -0.00228153 -0.0401928
				CHANNELS 6 Xposition Yposition Zposition Zrotation Xrotation Yrotation 
				JOINT Foot_R
				{
					OFFSET -40.9854 0.0 0.0
					CHANNELS 6 Xposition Yposition Zposition Zrotation Xrotation Yrotation 
					JOINT Toes_R
					{
						OFFSET -11.7543 0.0 0.0
						CHANNELS 6 Xposition Yposition Zposition Zrotation Xrotation Yrotation 
						End Site
						{
							OFFSET 0.0 0.0 0.0
						}
					}
				}
			}
		}
	}
}
MOTION
Frames:	8
Frame Time:	0.0333333
0.000000 0.000000 0.000000 0.000000 0.000000 -0.000000 -197.899000 91.788000 242.994000 128.557000 85.829600 -41.220700 15.735700 0.000005 -0.000001 102.918000 88.219600 -102.131000 8.984550 -0.406207 -0.000000 -4.299990 0.712571 1.602160 16.377300 -0.000001 -0.000001 2.950840 2.599850 -1.675390 6.456720 -0.000001 -0.000000 8.624180 3.339850 0.823526 12.994200 -0.242716 4.980390 -92.518100 7.630850 -71.675900 5.348090 -0.000007 -0.000001 -69.530500 -6.483920 4.434620 24.328600 0.000019 0.000005 5.223070 30.456100 -10.223100 22.291600 -0.000001 0.000005 40.839200 4.694630 13.245700 12.994500 -0.242716 -4.980390 88.691100 4.191570 -72.640900 -5.348130 -0.000001 -0.000004 -69.395500 7.357920 -7.161970 -24.328900 0.000322 -0.000009 -1.708120 -6.220320 -15.373700 -22.291500 -0.000108 -0.000004 34.230700 5.383780 -2.414420 -2.192480 -6.469440 -0.000000 177.949000 -3.272270 -30.216400 39.081100 -0.000007 -0.000012 0.083121 -0.047820 60.085800 40.985400 -0.000006 -0.000013 -3.795870 -4.284120 -49.772700 11.754300 -0.000000 0.000003 0.002012 0.047153 -14.664100 -2.192510 6.469440 -0.000001 179.978000 5.798450 -179.180000 -39.081100 -0.002282 -0.040193 -0.008141 0.034931 18.171300 -40.985400 0.000008 0.000006 -2.133650 10.735500 -73.141200 -11.754300 -0.000006 -0.000006 -0.007328 0.250125 -6.416410
0.000000 0.000000 0.000000 0.000000 0.000000 -0.000000 -196.023000 92.342900 242.779000 126.016000 84.610100 -39.528700 15.735700 0.000005 -0.000001 122.520000 88.337800 -122.125000 8.984550 -0.406207 -0.000000 -4.970040 1.741450 0.866909 16.377300 -0.000001 -0.000001 3.594180 2.762380 -1.729880 6.456720 -0.000001 -0.000000 9.032390 3.034740 0.938192 12.994200 -0.242716 4.980390 -92.520200 7.332430 -70.972200 5.348090 -0.000007 -0.000001 -64.904800 -12.594700 9.136870 24.328600 0.000019 0.000005 5.404430 28.824800 -11.102900 22.291600 -0.000001 0.000005 42.773200 4.665980 13.762400 12.994500 -0.242716 -4.980390 88.731000 4.090200 -72.746600 -5.348130 -0.000001 -0.000004 -69.386800 7.022550 -8.288070 -24.328900 0.000322 -0.000009 -2.195800 -5.855850 -20.592700 -22.291500 -0.000108 -0.000004 35.852000 5.404640 -3.086350 -2.192480 -6.469440 -0.000000 177.348000 -2.460920 -32.002900 39.081100 -0.000007 -0.000012 0.064918 -0.051353 51.652500 40.985400 -0.000006 -0.000013 -3.834230 -5.104320 -51.833100 11.754300 -0.000000 0.000003 0.002046 0.048487 -14.610000 -2.192510 6.469440 -0.000001 178.602000 7.372050 -177.256000 -39.081100 -0.002282 -0.040193 -0.001052 0.016799 14.622300 -40.985400 0.000008 0.000006 -2.735540 13.248200 -70.094900 -11.754300 -0.000006 -0.000006 -0.003725 0.216214 -7.798930
0.000000 0.000000 0.000000 0.000000 0.000000 -0.000000 -194.102000 92.598500 242.654000 124.177000 83.939700 -38.479500 15.735700 0.000005 -0.000001 137.997000 88.272400 -137.865000 8.984550 -0.406207 -0.000000 -5.459840 2.549200 0.385509 16.377300 -0.000001 -0.000001 3.944450 2.832910 -1.869690 6.456720 -0.000001 -0.000000 9.248520 2.647080 1.094010 12.994200 -0.242716 4.980390 -92.558600 7.106050 -70.139000 5.348090 -0.000007 -0.000001 -59.846300 -16.713800 13.096800 24.328600 0.000019 0.000005 5.932080 28.003600 -12.478700 22.291600 -0.000001 0.000005 44.901300 4.621120 14.547600 12.994500 -0.242716 -4.980390 88.797200 3.923180 -72.940500 -5.348130 -0.000001 -0.000004 -69.468700 6.560070 -9.150410 -24.328900 0.000322 -0.000009 -2.471030 -5.126300 -25.776800 -22.291500 -0.000108 -0.000004 37.630900 5.424650 -3.754250 -2.192480 -6.469440 -0.000000 177.289000 -1.673270 -32.353400 39.081100 -0.000007 -0.000012 0.049060 -0.057308 40.564500 40.985400 -0.000006 -0.000013 -3.830560 -4.921780 -51.456900 11.754300 -0.000000 0.000003 0.002258 0.058335 -14.210700 -2.192510 6.469440 -0.000001 177.863000 8.165970 -175.603000 -39.081100 -0.002282 -0.040193 0.004256 -0.004355 11.933500 -40.985400 0.000008 0.000006 -3.079320 14.415800 -67.963700 -11.754300 -0.000006 -0.000006 -0.001314 0.187437 -8.969630
0.000000 0.000000 0.000000 0.000000 0.000000 -0.000000 -192.034000 92.470200 242.582000 122.269000 83.802200 -37.129400 15.735700 0.000005 -0.000001 148.094000 88.050300 -148.118000 8.984550 -0.406207 -0.000000 -5.709630 3.308710 0.116113 16.377300 -0.000001 -0.000001 3.996310 2.757200 -1.951180 6.456720 -0.000001 -0.000000 9.283720 2.053430 1.186690 12.994200 -0.242716 4.980390 -92.559000 6.848290 -69.453400 5.348090 -0.000007 -0.000001 -55.090800 -19.306300 16.122000 24.328600 0.000019 0.000005 6.757150 28.230900 -14.062500 22.291600 -0.000001 0.000005 47.723800 4.561630 15.567000 12.994500 -0.242716 -4.980390 88.876000 3.696260 -73.072600 -5.348130 -0.000001 -0.000004 -69.633400 5.914620 -9.773100 -24.328900 0.000322 -0.000009 -2.278630 -3.874210 -30.491600 -22.291500 -0.000108 -0.000004 39.250300 5.427670 -3.859750 -2.192480 -6.469440 -0.000000 177.550000 -1.291240 -31.242000 39.081100 -0.000007 -0.000012 0.034956 -0.066385 27.769200 40.985400 -0.000006 -0.000013 -4.148100 -2.653420 -50.867900 11.754300 -0.000000 0.000003 0.002386 0.066929 -13.862200 -2.192510 6.469440 -0.000001 177.660000 7.913490 -174.044000 -39.081100 -0.002282 -0.040193 0.007563 -0.023216 10.313100 -40.985400 0.000008 0.000006 -3.452320 14.601000 -67.118200 -11.754300 -0.000006 -0.000006 0.000137 0.165335 -9.867520
0.000000 0.000000 0.000000 0.000000 0.000000 -0.000000 -189.736000 91.868800 242.603000 116.412000 84.026600 -31.409100 15.735700 0.000005 -0.000001 151.531000 87.670100 -151.490000 8.984550 -0.406207 -0.000000 -5.554100 4.086210 0.281662 16.377300 -0.000001 -0.000001 3.695780 2.642530 -2.121170 6.456720 -0.000001 -0.000000 9.035570 1.393850 1.196500 12.994200 -0.242716 4.980390 -92.586900 6.711600 -68.864400 5.348090 -0.000007 -0.000001 -50.955100 -20.802000 18.238400 24.328600 0.000019 0.000005 7.447860 27.738800 -15.688000 22.291600 -0.000001 0.000005 49.755200 4.548580 15.788500 12.994500 -0.242716 -4.980390 88.940700 3.529760 -73.284000 -5.348130 -0.000001 -0.000004 -69.673800 4.969240 -10.284400 -24.328900 0.000322 -0.000009 -2.172220 -3.140180 -34.689300 -22.291500 -0.000108 -0.000004 40.313700 5.428160 -3.876550 -2.192480 -6.469440 -0.000000 178.007000 -2.037820 -29.067800 39.081100 -0.000007 -0.000012 0.022273 -0.082376 15.130200 40.985400 -0.000006 -0.000013 -5.375310 2.016740 -51.385400 11.754300 -0.000000 0.000003 0.002462 0.075279 -13.523700 -2.192510 6.469440 -0.000001 178.146000 6.833340 -172.682000 -39.081100 -0.002282 -0.040193 0.006525 -0.017228 10.480800 -40.985400 0.000008 0.000006 -3.614380 13.975500 -67.770600 -11.754300 -0.000006 -0.000006 0.001281 0.142239 -10.805000
0.000000 0.000000 0.000000 0.000000 0.000000 -0.000000 -187.164000 90.978500 242.602000 108.964000 84.286400 -23.990400 15.735700 0.000005 -0.000001 152.446000 87.291300 -152.248000 8.984550 -0.406207 -0.000000 -5.278230 4.774950 0.617259 16.377300 -0.000001 -0.000001 3.169320 2.560410 -2.280160 6.456720 -0.000001 -0.000000 8.627650 0.765362 0.975678 12.994200 -0.242716 4.980390 -92.736000 6.967000 -68.497100 5.348090 -0.000007 -0.000001 -47.297300 -22.023700 19.987400 24.328600 0.000019 0.000005 8.456230 27.566000 -17.810200 22.291600 -0.000001 0.000005 51.133700 4.524610 16.192300 12.994500 -0.242716 -4.980390 88.916500 3.687030 -73.610800 -5.348130 -0.000001 -0.000004 -69.322200 4.047940 -10.801100 -24.328900 0.000322 -0.000009 -2.163150 -2.771250 -37.988000 -22.291500 -0.000108 -0.000004 41.135200 5.420670 -3.623490 -2.192480 -6.469440 -0.000000 178.836000 -2.024960 -28.339700 39.081100 -0.000007 -0.000012 0.007966 -0.062342 7.282710 40.985400 -0.000006 -0.000013 -6.847660 6.143220 -52.984700 11.754300 -0.000000 0.000003 0.002480 0.079417 -13.356000 -2.192510 6.469440 -0.000001 178.480000 6.708940 -171.639000 -39.081100 -0.002282 -0.040193 0.001449 0.008864 12.011200 -40.985400 0.000008 0.000006 -3.722610 14.616900 -69.081300 -11.754300 -0.000006 -0.000006 0.002197 0.112529 -12.010000
0.000000 0.000000 0.000000 0.000000 0.000000 -0.000000 -184.311000 90.043600 242.510000 104.260000 84.615900 -19.427700 15.735700 0.000005 -0.000001 152.055000 87.031500 -151.771000 8.984550 -0.406207 -0.000000 -5.007870 5.207660 0.796351 16.377300 -0.000001 -0.000001 2.502030 2.469720 -2.495870 6.456720 -0.000001 -0.000000 8.089890 0.281599 0.852584 12.994200 -0.242716 4.980390 -92.875200 7.285370 -68.393700 5.348090 -0.000007 -0.000001 -44.919400 -23.196700 21.052200 24.328600 0.000019 0.000005 9.256200 27.488200 -19.447100 22.291600 -0.000001 0.000005 52.688800 4.501900 16.566100 12.994500 -0.242716 -4.980390 88.822500 4.104400 -73.976700 -5.348130 -0.000001 -0.000004 -68.721400 3.503070 -11.356600 -24.328900 0.000322 -0.000009 -2.064960 -2.459460 -40.023300 -22.291500 -0.000108 -0.000004 41.925100 5.415470 -3.447880 -2.192480 -6.469440 -0.000000 179.828000 -0.381479 -29.598700 39.081100 -0.000007 -0.000012 -0.000774 0.007605 5.803630 40.985400 -0.000006 -0.000013 -6.647220 7.712040 -56.425500 11.754300 -0.000000 0.000003 0.002486 0.082239 -13.241500 -2.192510 6.469440 -0.000001 178.324000 7.560590 -170.994000 -39.081100 -0.002282 -0.040193 -0.007662 0.042816 14.400000 -40.985400 0.000008 0.000006 -3.479240 15.747100 -70.130000 -11.754300 -0.000006 -0.000006 0.002185 0.054543 -14.360800
0.000000 0.000000 0.000000 0.000000 0.000000 -0.000000 -180.854000 89.267000 242.372000 100.959000 84.531300 -16.306000 15.735700 0.000005 -0.000001 153.341000 86.774000 -153.064000 8.984550 -0.406207 -0.000000 -4.898160 5.729730 0.800385 16.377300 -0.000001 -0.000001 1.822850 2.378620 -2.512520 6.456720 -0.000001 -0.000000 7.688500 -0.082594 0.683197 12.994200 -0.242716 4.980390 -92.920200 7.411580 -68.424100 5.348090 -0.000007 -0.000001 -44.090000 -24.109800 21.428200 24.328600 0.000019 0.000005 9.629140 27.673300 -20.067600 22.291600 -0.000001 0.000005 53.810400 4.514210 16.364400 12.994500 -0.242716 -4.980390 88.800100 4.266510 -74.275800 -5.348130 -0.000001 -0.000004 -68.632600 3.451630 -11.456000 -24.328900 0.000322 -0.000009 -1.880950 -2.183690 -40.740400 -22.291500 -0.000108 -0.000004 42.052500 5.410260 -3.273940 -2.192480 -6.469440 -0.000000 179.348000 -1.253320 -29.707800 39.081100 -0.000007 -0.000012 -0.001605 0.015284 5.990520 40.985400 -0.000006 -0.000013 -8.942380 8.968690 -58.108400 11.754300 -0.000000 0.000003 0.002486 0.081916 -13.254700 -2.192510 6.469440 -0.000001 177.851000 7.744530 -170.310000 -39.081100 -0.002282 -0.040193 -0.014666 0.059396 16.852900 -40.985400 0.000008 0.000006 -3.644390 16.419900 -69.778000 -11.754300 -0.000006 -0.000006 -0.002492 -0.034719 -17.984900
